<svg xmlns="http://www.w3.org/2000/svg" viewBox="0 0 1200 800" width="1200" height="800" role="img" aria-labelledby="title desc">
  <title id="title">Chaikin Signal — Corner Cutting Turns Jagged Samples into a Smooth Wave</title>
  <desc id="desc">A cyberpunk visualization comparing a jagged polyline and its Chaikin-smoothed curve generated from the same 17 sample points.</desc>
  <defs>
    <linearGradient id="bg" x1="0" y1="0" x2="1" y2="1">
      <stop offset="0%" stop-color="#040612"/>
      <stop offset="50%" stop-color="#081425"/>
      <stop offset="100%" stop-color="#05070e"/>
    </linearGradient>
    <linearGradient id="neon" x1="0" y1="0" x2="1" y2="0">
      <stop offset="0%" stop-color="#31e6ff"/>
      <stop offset="50%" stop-color="#7d8bff"/>
      <stop offset="100%" stop-color="#ff4fd8"/>
    </linearGradient>
    <filter id="glow" x="-40%" y="-40%" width="180%" height="180%">
      <feGaussianBlur stdDeviation="10" result="blur"/>
      <feMerge>
        <feMergeNode in="blur"/>
        <feMergeNode in="SourceGraphic"/>
      </feMerge>
    </filter>
    <pattern id="scan" width="8" height="8" patternUnits="userSpaceOnUse">
      <rect width="8" height="8" fill="transparent"/>
      <rect width="8" height="1" fill="rgba(255,255,255,0.03)"/>
    </pattern>
  </defs>

  <rect width="100%" height="100%" fill="url(#bg)"/>
  <rect width="100%" height="100%" fill="url(#scan)" opacity="0.45"/>

  <g opacity="0.22" stroke="#1d4f7a" stroke-width="1">
    <line x1="90.00" y1="90" x2="90.00" y2="710" /><line x1="153.75" y1="90" x2="153.75" y2="710" /><line x1="217.50" y1="90" x2="217.50" y2="710" /><line x1="281.25" y1="90" x2="281.25" y2="710" /><line x1="345.00" y1="90" x2="345.00" y2="710" /><line x1="408.75" y1="90" x2="408.75" y2="710" /><line x1="472.50" y1="90" x2="472.50" y2="710" /><line x1="536.25" y1="90" x2="536.25" y2="710" /><line x1="600.00" y1="90" x2="600.00" y2="710" /><line x1="663.75" y1="90" x2="663.75" y2="710" /><line x1="727.50" y1="90" x2="727.50" y2="710" /><line x1="791.25" y1="90" x2="791.25" y2="710" /><line x1="855.00" y1="90" x2="855.00" y2="710" /><line x1="918.75" y1="90" x2="918.75" y2="710" /><line x1="982.50" y1="90" x2="982.50" y2="710" /><line x1="1046.25" y1="90" x2="1046.25" y2="710" /><line x1="1110.00" y1="90" x2="1110.00" y2="710" />
    <line x1="70" y1="110.00" x2="1130" y2="110.00" /><line x1="70" y1="195.00" x2="1130" y2="195.00" /><line x1="70" y1="280.00" x2="1130" y2="280.00" /><line x1="70" y1="365.00" x2="1130" y2="365.00" /><line x1="70" y1="450.00" x2="1130" y2="450.00" /><line x1="70" y1="535.00" x2="1130" y2="535.00" /><line x1="70" y1="620.00" x2="1130" y2="620.00" /><line x1="70" y1="705.00" x2="1130" y2="705.00" />
  </g>

  <line x1="70" y1="400.00" x2="1130" y2="400.00" stroke="#2d8dbd" stroke-width="1.5" opacity="0.35" />

  <g fill="#9bcfff" font-family="monospace" font-size="18" opacity="0.7">
    <text x="90" y="65">AGENT J LAB // CHAIKIN SIGNAL</text>
    <text x="90" y="95" font-size="13" opacity="0.78">17 SAMPLE POINTS → 4 SUBDIVISIONS → 272 CURVE POINTS</text>
  </g>

  <polyline points="90.00,450.60 153.75,530.22 217.50,524.98 281.25,533.97 345.00,592.00 408.75,604.64 472.50,541.01 536.25,450.53 600.00,331.24 663.75,202.27 727.50,165.35 791.25,228.51 855.00,275.62 918.75,283.40 982.50,328.33 1046.25,408.34 1110.00,486.24" fill="none" stroke="#5ec8ff" stroke-width="3" stroke-dasharray="8 10" opacity="0.55"/>
  <polyline points="90.00,450.60 90.25,450.91 90.75,451.53 91.49,452.47 92.49,453.71 93.74,455.27 95.23,457.13 96.97,459.31 98.96,461.80 101.21,464.60 103.70,467.71 106.44,471.13 109.42,474.86 112.66,478.90 116.15,483.26 119.88,487.92 123.87,492.90 127.85,497.54 131.84,501.86 135.82,505.84 139.80,509.49 143.79,512.81 147.77,515.80 151.76,518.45 155.74,520.78 159.73,522.77 163.71,524.43 167.70,525.76 171.68,526.76 175.66,527.42 179.65,527.76 183.63,527.76 187.62,527.43 191.60,527.16 195.59,526.95 199.57,526.79 203.55,526.68 207.54,526.63 211.52,526.64 215.51,526.70 219.49,526.81 223.48,526.99 227.46,527.22 231.45,527.50 235.43,527.84 239.41,528.23 243.40,528.68 247.38,529.19 251.37,529.75 255.35,530.51 259.34,531.45 263.32,532.59 267.30,533.92 271.29,535.44 275.27,537.15 279.26,539.05 283.24,541.15 287.23,543.43 291.21,545.91 295.20,548.58 299.18,551.44 303.16,554.49 307.15,557.74 311.13,561.17 315.12,564.80 319.10,568.25 323.09,571.52 327.07,574.62 331.05,577.54 335.04,580.28 339.02,582.84 343.01,585.23 346.99,587.43 350.98,589.46 354.96,591.32 358.95,593.00 362.93,594.49 366.91,595.82 370.90,596.96 374.88,597.93 378.87,598.72 382.85,599.21 386.84,599.40 390.82,599.30 394.80,598.90 398.79,598.20 402.77,597.20 406.76,595.90 410.74,594.31 414.73,592.42 418.71,590.23 422.70,587.74 426.68,584.96 430.66,581.87 434.65,578.49 438.63,574.81 442.62,570.84 446.60,566.75 450.59,562.57 454.57,558.28 458.55,553.88 462.54,549.38 466.52,544.77 470.51,540.06 474.49,535.24 478.48,530.32 482.46,525.30 486.45,520.17 490.43,514.93 494.41,509.59 498.40,504.15 502.38,498.60 506.37,492.94 510.35,487.17 514.34,481.29 518.32,475.30 522.30,469.19 526.29,462.98 530.27,456.65 534.26,450.20 538.24,443.65 542.23,436.98 546.21,430.20 550.20,423.31 554.18,416.30 558.16,409.18 562.15,401.95 566.13,394.61 570.12,387.15 574.10,379.66 578.09,372.13 582.07,364.56 586.05,356.95 590.04,349.31 594.02,341.63 598.01,333.90 601.99,326.15 605.98,318.35 609.96,310.52 613.95,302.65 617.93,294.74 621.91,286.79 625.90,278.81 629.88,270.78 633.87,262.72 637.85,255.02 641.84,247.68 645.82,240.70 649.80,234.08 653.79,227.81 657.77,221.91 661.76,216.37 665.74,211.18 669.73,206.36 673.71,201.89 677.70,197.79 681.68,194.04 685.66,190.66 689.65,187.63 693.63,184.96 697.62,182.65 701.60,180.74 705.59,179.21 709.57,178.08 713.55,177.33 717.54,176.98 721.52,177.02 725.51,177.45 729.49,178.27 733.48,179.48 737.46,181.08 741.45,183.07 745.43,185.46 749.41,188.23 753.40,191.40 757.38,194.95 761.37,198.90 765.35,202.78 769.34,206.61 773.32,210.37 777.30,214.06 781.29,217.70 785.27,221.27 789.26,224.78 793.24,228.22 797.23,231.61 801.21,234.93 805.20,238.19 809.18,241.38 813.16,244.51 817.15,247.58 821.13,250.59 825.12,253.53 829.10,256.33 833.09,258.96 837.07,261.45 841.05,263.78 845.04,265.95 849.02,267.98 853.01,269.84 856.99,271.56 860.98,273.12 864.96,274.53 868.95,275.78 872.93,276.88 876.91,277.83 880.90,278.62 884.88,279.26 888.87,279.75 892.85,280.38 896.84,281.16 900.82,282.08 904.80,283.15 908.79,284.36 912.77,285.71 916.76,287.22 920.74,288.86 924.73,290.66 928.71,292.59 932.70,294.68 936.68,296.90 940.66,299.28 944.65,301.80 948.63,304.46 952.62,307.27 956.60,310.21 960.59,313.29 964.57,316.51 968.55,319.87 972.54,323.36 976.52,326.99 980.51,330.76 984.49,334.67 988.48,338.71 992.46,342.89 996.45,347.20 1000.43,351.65 1004.41,356.24 1008.40,360.97 1012.38,365.83 1016.37,370.83 1020.35,375.83 1024.34,380.81 1028.32,385.79 1032.30,390.75 1036.29,395.71 1040.27,400.67 1044.26,405.61 1048.24,410.54 1052.23,415.47 1056.21,420.39 1060.20,425.30 1064.18,430.20 1068.16,435.09 1072.15,439.98 1076.13,444.86 1080.12,449.73 1083.85,454.29 1087.34,458.55 1090.58,462.51 1093.56,466.16 1096.30,469.51 1098.79,472.55 1101.04,475.29 1103.03,477.72 1104.77,479.85 1106.26,481.68 1107.51,483.20 1108.51,484.42 1109.25,485.33 1109.75,485.94 1110.00,486.24" fill="none" stroke="url(#neon)" stroke-width="6" stroke-linecap="round" stroke-linejoin="round" filter="url(#glow)"/>

  <g>
    <circle cx="90.00" cy="450.60" r="5.5" fill="#d6f8ff" stroke="#43d5ff" stroke-width="1.5" /><circle cx="153.75" cy="530.22" r="5.5" fill="#d6f8ff" stroke="#43d5ff" stroke-width="1.5" /><circle cx="217.50" cy="524.98" r="5.5" fill="#d6f8ff" stroke="#43d5ff" stroke-width="1.5" /><circle cx="281.25" cy="533.97" r="5.5" fill="#d6f8ff" stroke="#43d5ff" stroke-width="1.5" /><circle cx="345.00" cy="592.00" r="5.5" fill="#d6f8ff" stroke="#43d5ff" stroke-width="1.5" /><circle cx="408.75" cy="604.64" r="5.5" fill="#d6f8ff" stroke="#43d5ff" stroke-width="1.5" /><circle cx="472.50" cy="541.01" r="5.5" fill="#d6f8ff" stroke="#43d5ff" stroke-width="1.5" /><circle cx="536.25" cy="450.53" r="5.5" fill="#d6f8ff" stroke="#43d5ff" stroke-width="1.5" /><circle cx="600.00" cy="331.24" r="5.5" fill="#d6f8ff" stroke="#43d5ff" stroke-width="1.5" /><circle cx="663.75" cy="202.27" r="5.5" fill="#d6f8ff" stroke="#43d5ff" stroke-width="1.5" /><circle cx="727.50" cy="165.35" r="5.5" fill="#d6f8ff" stroke="#43d5ff" stroke-width="1.5" /><circle cx="791.25" cy="228.51" r="5.5" fill="#d6f8ff" stroke="#43d5ff" stroke-width="1.5" /><circle cx="855.00" cy="275.62" r="5.5" fill="#d6f8ff" stroke="#43d5ff" stroke-width="1.5" /><circle cx="918.75" cy="283.40" r="5.5" fill="#d6f8ff" stroke="#43d5ff" stroke-width="1.5" /><circle cx="982.50" cy="328.33" r="5.5" fill="#d6f8ff" stroke="#43d5ff" stroke-width="1.5" /><circle cx="1046.25" cy="408.34" r="5.5" fill="#d6f8ff" stroke="#43d5ff" stroke-width="1.5" /><circle cx="1110.00" cy="486.24" r="5.5" fill="#d6f8ff" stroke="#43d5ff" stroke-width="1.5" />
  </g>

  <g fill="#d7eeff" font-family="monospace" font-size="13" opacity="0.75">
    <text x="82.00" y="436.60">0</text><text x="145.75" y="516.22">1</text><text x="209.50" y="510.98">2</text><text x="273.25" y="519.97">3</text><text x="337.00" y="578.00">4</text><text x="400.75" y="590.64">5</text><text x="464.50" y="527.01">6</text><text x="528.25" y="436.53">7</text><text x="592.00" y="317.24">8</text><text x="655.75" y="188.27">9</text><text x="719.50" y="151.35">10</text><text x="783.25" y="214.51">11</text><text x="847.00" y="261.62">12</text><text x="910.75" y="269.40">13</text><text x="974.50" y="314.33">14</text><text x="1038.25" y="394.34">15</text><text x="1102.00" y="472.24">16</text>
  </g>

  <g transform="translate(84,620)">
    <rect width="290" height="118" rx="16" fill="rgba(5,16,32,0.76)" stroke="rgba(73,180,255,0.22)"/>
    <text x="18" y="28" fill="#87e8ff" font-family="monospace" font-size="15">METRICS</text>
    <text x="18" y="54" fill="#ccecff" font-family="monospace" font-size="14">Raw segments   : 16</text>
    <text x="18" y="76" fill="#ccecff" font-family="monospace" font-size="14">Raw path length: 1449.3px</text>
    <text x="18" y="98" fill="#ccecff" font-family="monospace" font-size="14">Smooth length  : 1415.4px</text>
  </g>

  <g transform="translate(820,620)">
    <rect width="294" height="118" rx="16" fill="rgba(16,8,28,0.76)" stroke="rgba(204,95,255,0.22)"/>
    <text x="18" y="28" fill="#ff94ea" font-family="monospace" font-size="15">HYPOTHESIS SNAPSHOT</text>
    <text x="18" y="54" fill="#f6dfff" font-family="monospace" font-size="14">Corner cutting kills sharp angles.</text>
    <text x="18" y="76" fill="#f6dfff" font-family="monospace" font-size="14">Peak-to-peak swing: 439.3px</text>
    <text x="18" y="98" fill="#f6dfff" font-family="monospace" font-size="14">Same points, radically smoother feel.</text>
  </g>

  <g opacity="0.75">
    <text x="878" y="90" fill="#c6eeff" font-family="monospace" font-size="14">RAW POLYLINE</text>
    <line x1="1016" y1="84" x2="1086" y2="84" stroke="#5ec8ff" stroke-width="3" stroke-dasharray="8 10"/>
    <text x="878" y="116" fill="#ffd7f8" font-family="monospace" font-size="14">CHAIKIN SMOOTHED</text>
    <line x1="1016" y1="110" x2="1086" y2="110" stroke="url(#neon)" stroke-width="5" stroke-linecap="round"/>
  </g>
</svg>
